<svg width="178" height="69" viewBox="0 0 178 69" fill="none" xmlns="http://www.w3.org/2000/svg">
<g clip-path="url(#clip0_1_677)">
<path d="M34.5154 0C15.4523 0 -1.52588e-05 15.4454 -1.52588e-05 34.5C-1.52588e-05 53.5546 15.4523 69 34.5154 69C53.5785 69 69.0308 53.5546 69.0308 34.5C69.0308 15.4454 53.5785 0 34.5154 0ZM55.1384 25.0689C54.8065 25.2912 52.3904 26.9332 51.4479 29.0729C51.4479 29.0729 49.0849 35.5848 44.714 42.445C43.7549 45.5433 48.6634 54.2877 48.6634 54.2877H48.6269C49.4566 54.2877 50.1203 54.9711 50.1203 55.7805C50.1203 56.59 49.4367 57.2733 48.6269 57.2733H46.8182C46.7252 57.2733 46.6522 57.2368 46.5593 57.2169C46.5394 57.197 46.5228 57.197 46.5029 57.197C45.9851 57.0876 45.5802 56.716 45.4143 56.2184C45.4143 56.1985 45.3944 56.1985 45.3944 56.1819C44.7871 54.855 38.6772 45.5035 38.6772 45.5035C37.2003 42.7734 34.3395 41.0782 31.2398 41.0782C29.9122 41.0782 28.6577 41.3735 27.4762 41.9639L28.0106 43.0321C29.0261 42.5345 30.0948 42.2758 31.2398 42.2758C33.8417 42.2758 36.2047 43.6591 37.5123 45.8916C37.8276 46.5916 38.0101 47.3844 38.0101 48.2171L36.2578 53.9892H39.8752C40.778 53.9892 41.518 54.7256 41.518 55.6313C41.518 56.5369 40.7813 57.2733 39.8752 57.2733H23.3975C19.8729 57.2733 16.8827 56.0194 14.762 53.6409C12.8968 51.5377 11.8647 48.7346 11.8647 45.7457C11.8647 43.0354 12.233 40.3418 12.5483 37.9633C12.9366 35.1402 13.3614 30.7713 12.6578 29.9586C12.5284 29.8126 12.2696 29.7363 11.8647 29.7363C10.9619 29.7363 10.2219 28.9999 10.2219 28.0943C10.2219 27.1887 10.9586 26.4522 11.8647 26.4522C13.2486 26.4522 14.3571 26.9133 15.1303 27.799C16.8296 29.7363 16.3849 34.2346 15.814 38.4244C15.4987 40.71 15.1669 43.2743 15.1503 45.7822C15.1138 48.9535 17.5497 50.9837 18.0111 51.2955V45.6694C18.0111 32.4831 27.5327 30.0283 33.2709 27.6498L41.518 23.868C41.518 23.868 43.6222 18.0395 44.8036 16.7491C48.9754 12.2475 53.4391 11.657 53.4391 11.657C52.7555 14.0355 51.6138 16.5268 52.0917 15.8435C52.0917 15.8435 54.4182 17.1339 55.1184 18.076C55.6727 18.8125 56.0776 21.2308 56.0776 21.2308C56.3165 21.6355 57.0201 22.5577 56.9803 22.9823C56.8874 23.941 55.8718 24.568 55.135 25.0656L55.1384 25.0689Z" fill="#C75E90"/>
<path d="M73.5411 31.1228C73.5411 28.3529 74.3741 25.9345 76.0368 23.8778C78.0181 21.3434 80.9088 20.0762 84.7121 20.0762C90.4171 20.6302 93.9417 23.2044 95.2891 27.7955C95.5281 28.8272 95.684 29.9352 95.7637 31.1228V44.6641C95.7637 45.9313 95.1696 46.8435 93.9815 47.3975C93.5069 47.6364 93.0688 47.7525 92.6739 47.7525C91.3265 47.7525 90.4171 47.1189 89.9392 45.8517C89.7799 45.4569 89.7003 45.0588 89.7003 44.6641V31.1228C89.541 28.1936 87.8782 26.5715 84.7088 26.253C82.0139 26.253 80.3911 27.5202 79.8368 30.0546C79.7572 30.4494 79.7173 30.8077 79.7173 31.1228V44.6641C79.7173 45.9313 79.0834 46.8435 77.8157 47.3975C77.4971 47.6364 77.1021 47.7525 76.6275 47.7525C75.2801 47.7525 74.3309 47.1189 73.7767 45.8517C73.6174 45.4569 73.5378 45.0588 73.5378 44.6641V31.1228H73.5411Z" fill="white"/>
<path d="M118.225 40.5077C119.174 39.7149 120.246 39.5191 121.435 39.9139C122.543 40.3883 123.177 41.2607 123.336 42.5279C123.495 43.7155 123.097 44.6676 122.148 45.3775C120.88 46.3262 119.453 47.003 117.87 47.3977C116.762 47.6366 114.78 47.7162 111.93 47.6366C109.948 47.6366 107.967 46.9632 105.989 45.6163C102.58 43.0819 100.758 39.2405 100.523 34.0953V32.7883C100.838 27.4043 102.663 23.5629 105.989 21.2673C108.05 19.9205 110.267 19.2471 112.643 19.2471C114.385 19.2471 116.048 19.6418 117.635 20.4347C121.438 22.8099 123.34 26.7707 123.34 32.3139V33.5015C123.34 33.8963 123.26 34.2944 123.101 34.6891C122.546 35.9563 121.554 36.59 120.13 36.59H107.177C107.731 39.2836 109.318 40.8262 111.93 41.2242H112.998C115.769 41.2242 117.515 40.9854 118.229 40.511L118.225 40.5077ZM112.401 25.6594H111.926C111.133 25.6594 110.34 25.8983 109.55 26.3726C108.282 27.2451 107.489 28.5521 107.174 30.2937H116.918V30.0549C116.599 28.0744 115.809 26.7674 114.541 26.1338C113.987 25.8187 113.353 25.6594 112.64 25.6594H112.401Z" fill="white"/>
<path d="M131.059 7.96143C131.929 7.96143 132.682 8.27989 133.316 8.91018C133.95 9.54378 134.265 10.2968 134.265 11.1659V28.6283L144.367 19.0081C145.396 18.0593 146.584 17.8603 147.932 18.4143C148.247 18.5735 148.566 18.809 148.881 19.1275C149.83 20.1558 150.029 21.307 149.475 22.5708C149.236 22.9656 149 23.3239 148.761 23.639L141.394 30.5291L150.308 42.6439C151.178 43.8315 151.217 45.0191 150.427 46.2067C150.189 46.5251 149.913 46.8005 149.594 47.0393C148.486 47.9084 147.298 47.9483 146.03 47.1587C145.711 46.9995 145.436 46.764 145.197 46.4455L136.761 34.9245L134.265 37.2997V44.5447C134.265 45.7323 133.751 46.6446 132.722 47.2782C131.613 47.9118 130.541 47.9118 129.512 47.2782C128.484 46.6446 127.969 45.7323 127.969 44.5447V11.1659C127.969 9.81912 128.563 8.87037 129.751 8.31638C130.146 8.07753 130.584 7.96143 131.059 7.96143Z" fill="white"/>
<path d="M172.653 21.5028C176.218 24.1964 178.003 28.2336 178.003 33.6176C178.003 39.3996 176.221 43.4766 172.653 45.8518C170.672 47.119 168.455 47.7526 165.999 47.7526C163.225 47.7526 160.769 46.9598 158.632 45.3774C155.621 42.843 154.154 38.9253 154.234 33.6176C154.234 27.9947 156.016 23.9974 159.581 21.6189C161.482 20.272 163.623 19.5986 165.999 19.5986C168.535 19.5986 170.752 20.2322 172.653 21.4994V21.5028ZM165.999 41.5791C169.882 41.5791 171.82 38.9253 171.82 33.6209C171.82 28.3165 169.879 25.9015 165.999 25.9015C164.967 25.9015 163.978 26.22 163.029 26.8503C161.287 27.9582 160.414 30.2173 160.414 33.6209V34.0953C160.414 39.0845 162.276 41.5791 165.999 41.5791Z" fill="white"/>
<path d="M141.951 51.7432H145.635V64.966H141.951V51.7432Z" fill="#C75E90"/>
<path d="M148.058 51.7432H151.48L156.922 58.7327V51.7432H160.55V64.966H157.337L151.685 57.711V64.966H148.058V51.7432Z" fill="#C75E90"/>
<path d="M162.893 51.7432H166.315L171.757 58.7327V51.7432H175.385V64.966H172.172L166.52 57.711V64.966H162.893V51.7432Z" fill="#C75E90"/>
</g>
<defs>
<clipPath id="clip0_1_677">
<rect width="178" height="69" fill="white"/>
</clipPath>
</defs>
</svg>
