<svg width="70" height="69" viewBox="0 0 70 69" fill="none" xmlns="http://www.w3.org/2000/svg">
<path d="M34.5154 0C15.4523 0 0 15.4454 0 34.5C0 53.5546 15.4523 69 34.5154 69C53.5785 69 69.0308 53.5546 69.0308 34.5C69.0308 15.4454 53.5785 0 34.5154 0ZM55.1384 25.0689C54.8065 25.2912 52.3904 26.9332 51.4479 29.0729C51.4479 29.0729 49.0849 35.5848 44.7141 42.445C43.7549 45.5433 48.6634 54.2877 48.6634 54.2877H48.6269C49.4566 54.2877 50.1204 54.9711 50.1204 55.7805C50.1204 56.59 49.4367 57.2733 48.6269 57.2733H46.8182C46.7252 57.2733 46.6522 57.2368 46.5593 57.2169C46.5394 57.197 46.5228 57.197 46.5029 57.197C45.9851 57.0876 45.5803 56.716 45.4143 56.2184C45.4143 56.1985 45.3944 56.1985 45.3944 56.1819C44.7871 54.855 38.6772 45.5035 38.6772 45.5035C37.2003 42.7734 34.3395 41.0782 31.2398 41.0782C29.9123 41.0782 28.6578 41.3735 27.4763 41.9639L28.0106 43.0321C29.0261 42.5345 30.0948 42.2758 31.2398 42.2758C33.8417 42.2758 36.2047 43.6591 37.5123 45.8916C37.8276 46.5916 38.0101 47.3844 38.0101 48.2171L36.2578 53.9892H39.8753C40.778 53.9892 41.5181 54.7256 41.5181 55.6313C41.5181 56.5369 40.7813 57.2733 39.8753 57.2733H23.3975C19.8729 57.2733 16.8827 56.0194 14.762 53.6409C12.8968 51.5377 11.8647 48.7346 11.8647 45.7457C11.8647 43.0354 12.2331 40.3418 12.5483 37.9633C12.9366 35.1402 13.3614 30.7713 12.6579 29.9586C12.5284 29.8126 12.2696 29.7363 11.8647 29.7363C10.962 29.7363 10.2219 28.9999 10.2219 28.0943C10.2219 27.1887 10.9586 26.4522 11.8647 26.4522C13.2486 26.4522 14.3571 26.9133 15.1304 27.799C16.8296 29.7363 16.3849 34.2346 15.814 38.4244C15.4987 40.71 15.1669 43.2743 15.1503 45.7822C15.1138 48.9535 17.5498 50.9837 18.0111 51.2955V45.6694C18.0111 32.4831 27.5327 30.0283 33.2709 27.6498L41.5181 23.868C41.5181 23.868 43.6222 18.0395 44.8037 16.7491C48.9754 12.2475 53.4392 11.657 53.4392 11.657C52.7555 14.0355 51.6138 16.5268 52.0917 15.8435C52.0917 15.8435 54.4182 17.1339 55.1185 18.076C55.6727 18.8125 56.0776 21.2308 56.0776 21.2308C56.3165 21.6355 57.0201 22.5577 56.9803 22.9823C56.8874 23.941 55.8718 24.568 55.1351 25.0656L55.1384 25.0689Z" fill="#C75E90"/>
</svg>
